# xmcd
#
# Track frame offsets: 
#        150
#        13637
#        28475
#        41579
#        53778
#        73247
#        82237
#        95798
#        106199
#        120040
#        142387
#        156361
#        170016
#        187658
#        201648
#        219416
#        233525
#        245181
#        258636
#        270301
#
# Disc length: 3827 seconds
#
# Revision: 0
# Processed by: cddbd v1.5.2PL0 Copyright (c) Steve Scherf et al.
# Submitted via: ExactAudioCopyFreeDBPlugin 1.0
#
DISCID=2d0ef114
DTITLE=Various Artist - Real Jazz
DYEAR=2006
DGENRE=Jazz
TTITLE0=Charlie Parker - Crazeology
TTITLE1=Stan Getz - I’ve got you under my skin
TTITLE2=Billie Holiday - I only have eyes for you
TTITLE3=Dizzy Gillespie - Groovin’ high
TTITLE4=Gaynor Ellen - Cry me a river
TTITLE5=Nat ‘King’ Cole - It’s only a paper moon
TTITLE6=Benny Goodman - Jersey bounce
TTITLE7=Lena Horne - The Lady is a tramp
TTITLE8=Dean Martin - Bye bye blackbird
TTITLE9=Glenn Miller - Tuxedo junction
TTITLE10=Ella Fitzgerald - Smooth sailing
TTITLE11=Gene Krupa - Drummin’ man
TTITLE12=Louis Armstrong - Cabaert
TTITLE13=Bessie Smith - Black mountain blues
TTITLE14=Miles Davis - Embraceable you
TTITLE15=Count Basie - Robbin’s nest
TTITLE16=Sarah Vaughan - These things I offer you (for a lifetime)
TTITLE17=Duke Ellington - In a jam
TTITLE18=George Gershwin - My one and only
TTITLE19=Django Reinharrdt - Tears
EXTD=
EXTT0=
EXTT1=
EXTT2=
EXTT3=
EXTT4=
EXTT5=
EXTT6=
EXTT7=
EXTT8=
EXTT9=
EXTT10=
EXTT11=
EXTT12=
EXTT13=
EXTT14=
EXTT15=
EXTT16=
EXTT17=
EXTT18=
EXTT19=
PLAYORDER=
